<svg width="306" height="305" viewBox="0 0 306 305" fill="none" xmlns="http://www.w3.org/2000/svg">
<path d="M148.277 258.463C219.536 258.463 277.302 200.697 277.302 129.438C277.302 58.1803 219.536 0.414062 148.277 0.414062C77.0191 0.414062 19.2529 58.1803 19.2529 129.438C19.2529 200.697 77.0191 258.463 148.277 258.463Z" fill="#FF9700"/>
<path d="M69.7372 90.6875L52.9326 91.1363L55.4817 107.64L79.3324 106.774L69.7372 90.6875Z" fill="white"/>
<path d="M74.6895 94.7172C74.6895 94.7172 80.6873 92.3857 83.3755 93.3932C85.7608 94.2908 85.5138 97.9798 84.2931 97.9798C83.694 97.9798 82.4464 96.2228 82.4464 96.2228L79.0381 99.6314L74.6895 94.7172Z" fill="white"/>
<path d="M88.7256 101.712C87.7091 102.16 82.4831 103.772 82.4831 103.772L79.5322 99.2478C83.7956 98.2672 87.0583 97.778 88.7502 98.4781C89.5177 98.7945 90.597 100.893 88.7256 101.712Z" fill="white"/>
<path d="M77.5557 102.897C77.5557 102.897 94.1179 102.224 94.6901 104.243C95.2623 106.263 81.2067 106.597 81.2067 106.597L77.5557 102.897Z" fill="white"/>
<path d="M79.8877 95.1087C79.0889 96.0578 79.8428 97.5455 80.6977 98.387C81.5526 99.2285 82.6275 99.7334 83.6867 98.7012C84.7929 97.6196 83.2556 95.7078 82.9348 95.3353C82.7689 95.0933 82.5509 94.8915 82.2965 94.7452C82.0422 94.5988 81.7584 94.5115 81.4658 94.4898C81.1732 94.468 80.8794 94.5123 80.6062 94.6195C80.3331 94.7266 80.0875 94.8938 79.8877 95.1087Z" fill="#0A1A29"/>
<path d="M83.3755 93.3626C85.7607 94.2602 85.5163 97.9492 84.2934 97.9492C83.6942 97.9492 82.6799 96.5333 82.2738 95.7973C81.8676 95.0613 80.6873 92.3551 83.3755 93.3626Z" fill="white"/>
<path d="M72.4189 90.8622C72.4189 90.8622 77.0122 87.6737 79.7004 88.6812C82.0857 89.5787 81.839 93.2677 80.6183 93.2677C80.0192 93.2677 78.989 91.8495 78.989 91.8495L75.8768 95.4555L72.4189 90.8622Z" fill="white"/>
<path d="M76.2109 90.429C75.4121 91.3782 76.1662 92.8659 77.0212 93.7073C77.8761 94.5488 78.9507 95.0537 80.0098 94.0215C81.1183 92.9399 79.5791 91.0281 79.2582 90.6556C79.0924 90.4136 78.8743 90.2119 78.62 90.0655C78.3657 89.9191 78.0816 89.8318 77.7889 89.8101C77.4963 89.7883 77.2028 89.8326 76.9297 89.9398C76.6565 90.0469 76.4107 90.2141 76.2109 90.429Z" fill="#0A1A29"/>
<path d="M79.7025 88.6829C82.0855 89.5805 81.8411 93.2695 80.6204 93.2695C80.0213 93.2695 79.007 91.8536 78.6008 91.1176C78.1947 90.3816 77.0121 87.6754 79.7025 88.6829Z" fill="white"/>
<path d="M83.501 99.7727C82.7022 100.722 83.4561 102.21 84.311 103.051C85.1659 103.893 86.2386 104.397 87.2999 103.365C88.4084 102.284 86.8689 100.372 86.548 99.9994C86.3822 99.7573 86.1641 99.5556 85.9098 99.4093C85.6555 99.2629 85.3717 99.1756 85.079 99.1538C84.7864 99.1321 84.4927 99.1764 84.2195 99.2835C83.9463 99.3907 83.7008 99.5579 83.501 99.7727Z" fill="#0A1A29"/>
<path d="M89.7496 100.306C89.7669 100.931 89.5903 101.546 89.2445 102.067C89.171 102.226 89.0572 102.362 88.9144 102.463C88.7717 102.564 88.605 102.625 88.431 102.641C88.257 102.657 88.082 102.628 87.9231 102.555C87.7643 102.482 87.6271 102.369 87.5257 102.227C86.8673 101.309 86.3388 100.305 85.9551 99.2422L89.7496 100.306Z" fill="white"/>
<path d="M62.1777 81.0085C62.1777 81.0085 57.6896 80.0323 57.1399 83.5216C56.3052 88.7499 63.8719 102.595 68.1353 110.058C72.3988 117.521 76.2627 126.019 82.5816 125.184C86.8562 124.621 87.6931 120.773 87.5405 117.443L84.7915 113.648C84.7915 113.648 85.7138 120.66 82.1482 121.098C79.2154 121.457 76.5161 118.762 73.9177 114.063C67.9354 103.252 61.8341 92.6925 61.0218 87.4709C60.297 82.8126 63.8289 83.6562 63.8289 83.6562L62.1777 81.0085Z" fill="#D44631"/>
<path d="M15.7246 236.702C16.0792 237.427 12.4752 241.588 10.431 243.858C14.9682 250.794 21.9692 259.956 25.2722 263.874C26.6006 265.445 28.7482 268.404 30.384 266.775C32.0198 265.146 34.6471 243.403 34.2522 242.631C33.8572 241.859 20.6544 222.521 19.7972 222.474C15.5899 222.238 4.76321 230.103 4.03619 232.329C3.73102 233.242 6.46611 237.607 8.3465 240.587C10.8462 238.904 15.3701 235.98 15.7246 236.702Z" fill="#D44631"/>
<path d="M13.1438 240.734C12.2148 241.856 11.2161 242.992 10.4375 243.858C14.9747 250.794 21.9757 259.956 25.2787 263.874C26.6071 265.444 28.7547 268.404 30.3905 266.775C30.6883 266.36 30.8993 265.889 31.0117 265.39L13.1438 240.734Z" fill="#0A1A29"/>
<path d="M8.35614 240.577C9.2537 239.971 10.4092 239.208 11.5401 238.508L5.63399 230.352C4.97648 230.892 4.43592 231.561 4.04529 232.317C3.73787 233.233 6.47575 237.597 8.35614 240.577Z" fill="#0A1A29"/>
<path d="M61.4764 181.756L39.3179 147.061L61.7678 141.227L63.7877 140.141C63.7877 140.141 87.4315 167.467 91.5154 177.089C95.5993 186.711 90.057 193.707 83.3523 200.706C76.6475 207.705 35.8287 243.856 35.8287 243.856C35.8287 243.856 22.1252 236.857 18.627 222.573L61.4764 181.756Z" fill="#0A1A29"/>
<path d="M31.2823 242.416C31.3282 242.416 31.3725 242.4 31.4077 242.371C31.5514 242.252 45.9932 230.312 60.2016 217.159C79.3241 199.465 88.9709 188.109 88.8699 183.408C88.7892 179.571 83.7085 171.248 73.7882 158.667C66.4103 149.316 58.9608 140.978 58.8868 140.893C58.8516 140.854 58.8029 140.831 58.7509 140.828C58.699 140.826 58.6478 140.843 58.6085 140.877C58.5696 140.912 58.5462 140.961 58.5433 141.013C58.5404 141.065 58.5579 141.116 58.5926 141.155C58.8888 141.488 88.2864 174.446 88.4771 183.415C88.7015 194.39 31.7335 241.593 31.1568 242.068C31.137 242.085 31.1206 242.105 31.1086 242.128C31.0967 242.151 31.089 242.176 31.0867 242.201C31.0844 242.227 31.0872 242.253 31.0949 242.277C31.1027 242.302 31.115 242.325 31.1316 242.344C31.1497 242.367 31.173 242.385 31.199 242.397C31.225 242.41 31.2535 242.416 31.2823 242.416Z" fill="#F7CEC1"/>
<path d="M24.7275 236.557C24.7745 236.557 24.8202 236.54 24.8557 236.51C27.1961 234.526 82.178 187.898 81.6036 182.432C80.89 175.653 61.1148 155.31 60.2733 154.448C60.2364 154.411 60.1863 154.391 60.1342 154.391C60.0821 154.391 60.032 154.411 59.9951 154.448C59.9766 154.466 59.9618 154.488 59.9518 154.512C59.9418 154.536 59.937 154.561 59.937 154.587C59.937 154.613 59.9418 154.639 59.9518 154.663C59.9618 154.687 59.9766 154.708 59.9951 154.726C60.1992 154.937 80.5156 175.832 81.2157 182.477C81.3728 183.976 76.6334 190.191 53.1532 211.288C39.0772 223.937 24.7479 236.081 24.6043 236.196C24.5846 236.212 24.5684 236.233 24.5566 236.256C24.5448 236.278 24.5379 236.303 24.5358 236.329C24.5337 236.355 24.5366 236.38 24.5446 236.405C24.5525 236.429 24.5651 236.452 24.5818 236.472C24.5982 236.496 24.6196 236.516 24.6448 236.531C24.6701 236.546 24.6984 236.554 24.7275 236.557Z" fill="#F7CEC1"/>
<path d="M20.4303 230.891C20.4567 230.891 20.4827 230.886 20.507 230.875C20.5312 230.865 20.5533 230.85 20.5716 230.831L51.3513 198.5C51.3698 198.482 51.3846 198.461 51.3946 198.437C51.4046 198.413 51.4094 198.387 51.4094 198.361C51.4094 198.335 51.4046 198.31 51.3946 198.286C51.3846 198.262 51.3698 198.24 51.3513 198.222C51.3331 198.204 51.3116 198.189 51.2878 198.179C51.2639 198.169 51.238 198.164 51.2122 198.164C51.1863 198.164 51.1604 198.169 51.1366 198.179C51.1127 198.189 51.0912 198.204 51.073 198.222L20.2933 230.552C20.2566 230.589 20.2363 230.639 20.2363 230.692C20.2363 230.744 20.2566 230.794 20.2933 230.831C20.311 230.849 20.3323 230.864 20.3558 230.875C20.3792 230.885 20.4046 230.891 20.4303 230.891Z" fill="#F7CEC1"/>
<path d="M54.3725 268.79C55.1691 268.897 56.6168 274.206 57.373 277.168C65.6619 277.258 77.1688 276.54 82.2624 275.975C84.3089 275.75 87.9592 275.606 87.5172 273.342C87.0751 271.078 70.4636 256.796 69.6087 256.693C68.7538 256.589 46.171 254.848 45.6549 255.535C43.1171 258.901 42.7989 274.224 44.235 276.066C44.8206 276.829 49.9726 276.984 53.4932 277.081C53.4843 274.065 53.5737 268.68 54.3725 268.79Z" fill="#D44631"/>
<path d="M56.2852 273.197C56.6958 274.59 57.0887 276.053 57.3737 277.182C65.6627 277.272 77.1689 276.554 82.2626 275.988C84.309 275.764 87.9622 275.62 87.5179 273.356C87.3384 272.878 87.0655 272.441 86.7148 272.07L56.2852 273.197Z" fill="#0A1A29"/>
<path d="M43.6035 273.663C43.6613 274.438 43.8395 275.2 44.1311 275.92C44.1643 275.977 44.2011 276.032 44.2412 276.084C44.8224 276.84 49.9744 276.995 53.4973 277.091C53.4973 276.353 53.4973 275.462 53.5219 274.545C53.5219 274.32 53.5216 274.096 53.5373 273.872C53.553 273.647 53.5375 273.485 53.5532 273.297L43.6035 273.663Z" fill="#0A1A29"/>
<path d="M17.4834 145.843C17.4834 145.843 18.9058 155.242 29.1089 170.988C38.0845 184.837 58.2664 210.057 58.2664 210.057L45.438 255.832C54.4354 260.065 64.5556 261.291 74.3035 259.33C74.3035 259.33 90.6301 213.263 88.5903 202.185C86.5506 191.107 52.7284 142.414 52.7284 142.414L17.4834 145.843Z" fill="#3F1E18"/>
<path d="M67.3155 263.199C67.3582 263.199 67.3993 263.185 67.4332 263.159C67.4672 263.133 67.4923 263.097 67.5039 263.056C68.1143 260.926 82.4438 210.773 81.3645 202.944C80.2852 195.115 48.2042 145.224 46.8377 143.106C46.8238 143.084 46.8052 143.065 46.784 143.051C46.7628 143.036 46.7391 143.025 46.7139 143.02C46.6886 143.015 46.6626 143.014 46.6372 143.019C46.6118 143.024 46.5876 143.034 46.5659 143.048C46.5224 143.076 46.492 143.12 46.481 143.171C46.4701 143.222 46.4793 143.275 46.5073 143.319C46.8394 143.837 79.9058 195.254 80.9739 203.007C82.042 210.76 67.2863 262.434 67.127 262.957C67.1131 263.007 67.1194 263.061 67.1445 263.106C67.1697 263.151 67.2115 263.185 67.2612 263.199C67.2791 263.202 67.2976 263.202 67.3155 263.199Z" fill="#D44631"/>
<path d="M58.6964 262.513C58.7386 262.513 58.7797 262.499 58.8136 262.474C58.8475 262.449 58.8729 262.414 58.8854 262.373C59.0313 261.893 73.5443 214.251 72.8846 203.927C72.6602 200.435 67.7734 193.4 62.1143 185.251C59.646 181.689 57.0834 178.01 54.6354 174.238C45.6126 160.341 37.9541 145.964 37.8778 145.83C37.8531 145.784 37.8112 145.75 37.7617 145.735C37.7122 145.72 37.6586 145.725 37.6127 145.749C37.59 145.761 37.5699 145.778 37.5535 145.797C37.5372 145.817 37.5249 145.84 37.5174 145.865C37.5099 145.889 37.5072 145.915 37.5097 145.941C37.5122 145.966 37.52 145.991 37.5322 146.014C37.6085 146.157 45.2716 160.539 54.3056 174.448C56.7581 178.225 59.3182 181.909 61.7933 185.473C67.421 193.573 72.2813 200.567 72.4967 203.949C73.1519 214.201 58.6582 261.777 58.5101 262.257C58.4947 262.307 58.5 262.361 58.5244 262.407C58.5488 262.453 58.5906 262.488 58.6405 262.504C58.6588 262.509 58.6774 262.512 58.6964 262.513Z" fill="#3F1E18"/>
<path d="M50.7378 259.741C50.779 259.741 50.8189 259.728 50.8523 259.704C50.8857 259.68 50.9109 259.646 50.9241 259.607C51.5501 257.722 66.2408 213.382 64.697 206.325C64.0104 203.184 59.7447 197.536 54.3436 190.375C51.523 186.637 48.3255 182.401 45.368 178.128C38.0353 167.756 31.4126 156.9 25.5454 145.634C25.5344 145.611 25.5187 145.59 25.4994 145.572C25.4801 145.555 25.4576 145.542 25.4331 145.534C25.4086 145.525 25.3828 145.522 25.3569 145.524C25.3311 145.526 25.306 145.533 25.283 145.544C25.2596 145.556 25.2384 145.571 25.2211 145.59C25.2037 145.609 25.1907 145.632 25.1822 145.657C25.1736 145.681 25.1697 145.707 25.1712 145.733C25.1728 145.758 25.1795 145.784 25.1909 145.807C31.0662 157.088 37.6985 167.958 45.0426 178.343C48.0023 182.623 51.2021 186.871 54.0182 190.604C59.1792 197.444 63.6356 203.352 64.302 206.401C65.8234 213.357 50.6927 259.014 50.5378 259.474C50.5215 259.524 50.5258 259.578 50.5493 259.625C50.5729 259.671 50.6142 259.707 50.6638 259.723C50.6871 259.734 50.7122 259.74 50.7378 259.741Z" fill="#3F1E18"/>
<path d="M88.5891 202.574H88.6477C88.6989 202.567 88.748 202.549 88.7923 202.522C88.8367 202.495 88.8751 202.46 88.9057 202.419C88.9364 202.377 88.9586 202.329 88.9709 202.279C88.9832 202.229 88.9855 202.177 88.9775 202.125C88.2101 196.989 80.511 184.152 73.8892 173.54C66.4844 161.648 59.1917 150.702 59.1176 150.59C59.0891 150.547 59.0526 150.51 59.0097 150.481C58.9668 150.452 58.9185 150.432 58.8678 150.422C58.8171 150.412 58.7651 150.412 58.7144 150.422C58.6637 150.431 58.6155 150.451 58.5725 150.48C58.5294 150.508 58.4924 150.545 58.4635 150.588C58.4346 150.631 58.4146 150.679 58.4043 150.73C58.3941 150.78 58.3938 150.833 58.4038 150.883C58.4138 150.934 58.4337 150.982 58.4624 151.025C58.5342 151.135 65.8137 162.083 73.2231 173.956C79.8044 184.502 87.454 197.247 88.2012 202.229C88.2127 202.324 88.2585 202.411 88.33 202.475C88.4015 202.539 88.4934 202.574 88.5891 202.574Z" fill="#D44631"/>
<path d="M52.4952 230.818C52.5786 230.818 52.6595 230.791 52.7269 230.742C52.7943 230.693 52.8446 230.623 52.8699 230.544C53.0943 229.821 58.4345 212.817 58.3044 210.602C58.1742 208.388 47.2263 195.155 45.981 193.656C45.9138 193.577 45.8178 193.527 45.7142 193.517C45.6105 193.508 45.5073 193.539 45.4266 193.605C45.3465 193.672 45.2965 193.767 45.2869 193.871C45.2772 193.975 45.3088 194.079 45.3751 194.159C50.0244 199.746 57.434 209.162 57.5215 210.647C57.6225 212.368 53.6597 225.421 52.1227 230.306C52.0917 230.405 52.101 230.513 52.149 230.605C52.1969 230.697 52.2796 230.766 52.3785 230.798C52.4161 230.81 52.4555 230.817 52.4952 230.818Z" fill="#D44631"/>
<path d="M33.0836 59.0222C33.0836 59.0222 19.5035 57.3056 13.593 60.1441C5.46112 64.053 9.81628 128.502 17.4837 145.828C26.8011 148.424 36.5696 148.978 46.1208 147.452C59.6246 145.471 63.7801 140.146 63.7801 140.146C63.7801 140.146 57.764 104.941 54.9748 93.567C52.7028 84.4099 48.9616 75.6816 43.8967 67.7217L33.0836 59.0222Z" fill="#D44631"/>
<path d="M54.1044 115.311C55.8546 120.58 59.1217 124.235 61.3992 123.479C63.6768 122.723 64.1054 117.838 62.3574 112.572C60.6094 107.305 57.3401 103.647 55.0625 104.404C52.785 105.16 52.3541 110.04 54.1044 115.311Z" fill="#3F1E18"/>
<path d="M55.3807 104.304C59.048 102.675 62.8436 101.351 66.7284 100.346C69.1967 100.168 72.2372 102.417 75.1228 105.81C76.8012 107.784 78.2936 111.449 76.3549 111.184C76.3549 111.184 77.8984 113.652 77.1377 114.422C76.4892 115.07 75.2981 114.357 75.2981 114.357C75.2981 114.357 76.8932 116.641 76.0114 117.723C75.5043 118.346 74.506 117.788 74.506 117.788C74.506 117.788 75.7152 119.381 74.5618 119.711C73.2155 120.097 68.7614 116.488 68.7614 116.488C67.6599 116.871 66.5358 117.185 65.3956 117.429C62.667 118.041 56.0902 118.58 56.0902 118.58L52.125 108.801C52.7641 107.025 53.8927 105.466 55.3807 104.304Z" fill="white"/>
<path d="M76.3555 111.385C76.3823 111.385 76.4088 111.38 76.4335 111.37C76.4582 111.359 76.4807 111.344 76.4993 111.325C76.536 111.288 76.5565 111.238 76.5565 111.186C76.5565 111.133 76.536 111.083 76.4993 111.046L71.0533 105.886C71.0163 105.849 70.9663 105.828 70.9142 105.828C70.862 105.828 70.812 105.849 70.775 105.886C70.7383 105.922 70.7178 105.972 70.7178 106.025C70.7178 106.077 70.7383 106.127 70.775 106.164L76.221 111.325C76.2562 111.362 76.3044 111.383 76.3555 111.385Z" fill="#0A1A29"/>
<path d="M75.2954 114.556C75.3229 114.556 75.3502 114.55 75.3754 114.539C75.4005 114.528 75.423 114.512 75.4414 114.491C75.4764 114.452 75.4946 114.401 75.4921 114.349C75.4895 114.297 75.4663 114.248 75.4277 114.213L69.7149 109.052C69.6959 109.034 69.6736 109.021 69.6492 109.012C69.6248 109.003 69.5987 108.999 69.5728 109C69.5469 109.001 69.5217 109.008 69.4983 109.019C69.4749 109.03 69.4539 109.046 69.4366 109.065C69.4017 109.104 69.3835 109.155 69.386 109.207C69.3885 109.259 69.4115 109.308 69.4501 109.344L75.1631 114.505C75.1994 114.537 75.2464 114.556 75.2954 114.556Z" fill="#0A1A29"/>
<path d="M74.5037 118.007C74.5307 118.008 74.5573 118.002 74.582 117.991C74.6067 117.98 74.6289 117.965 74.6472 117.945C74.6657 117.927 74.6805 117.905 74.6905 117.881C74.7005 117.857 74.7056 117.832 74.7056 117.806C74.7056 117.78 74.7005 117.754 74.6905 117.73C74.6805 117.706 74.6657 117.685 74.6472 117.666L69.1969 112.604C69.1599 112.568 69.1098 112.547 69.0577 112.547C69.0056 112.547 68.9556 112.568 68.9186 112.604C68.8819 112.641 68.8613 112.691 68.8613 112.743C68.8613 112.796 68.8819 112.845 68.9186 112.882L74.3692 117.945C74.4042 117.982 74.4523 118.005 74.5037 118.007Z" fill="#0A1A29"/>
<path d="M17.2382 59.4213C9.85355 59.6861 5.2041 65.0311 5.2041 77.9134C5.2041 90.7956 5.46678 118.14 8.09663 126.29C10.7265 134.44 16.509 135.229 23.0814 134.177C29.6538 133.125 61.3849 123.489 61.3849 123.489C61.3849 123.489 58.1333 123.29 55.4788 115.804C52.1466 106.4 54.5163 104.91 55.3802 104.317C55.3802 104.317 30.1606 110.286 28.6774 109.604C27.1942 108.922 28.6777 79.5491 27.917 71.8144C27.5221 67.7327 25.323 59.1296 17.2382 59.4213Z" fill="#D44631"/>
<path d="M29.1107 109.822C32.8356 109.822 52.9274 105.018 55.3418 104.437C55.3927 104.425 55.4366 104.393 55.464 104.348C55.4913 104.304 55.4997 104.25 55.4875 104.199C55.4743 104.149 55.442 104.106 55.3977 104.078C55.3534 104.051 55.3006 104.042 55.2498 104.053C45.2128 106.468 29.8801 109.887 28.7716 109.398C28.0715 109.057 28.0625 100.07 29.4268 84.0893C29.4293 84.0635 29.4263 84.0374 29.4186 84.0126C29.4109 83.9879 29.3986 83.9648 29.3819 83.945C29.3652 83.9251 29.3447 83.9089 29.3216 83.897C29.2985 83.8852 29.273 83.8781 29.2471 83.8761C29.2212 83.8733 29.1953 83.8759 29.1704 83.8835C29.1455 83.8911 29.1224 83.9036 29.1025 83.9203C29.0826 83.9371 29.066 83.9578 29.0543 83.981C29.0426 84.0042 29.0357 84.0297 29.034 84.0556C28.6773 88.2248 26.9853 109.055 28.6144 109.76C28.7748 109.809 28.943 109.83 29.1107 109.822Z" fill="#183C61"/>
<path d="M21.0999 134.603C22.641 134.607 24.1794 134.482 25.6995 134.228C37.8275 131.242 49.7977 127.648 61.5641 123.458C61.5883 123.449 61.6103 123.435 61.6293 123.418C61.6483 123.401 61.6639 123.38 61.6748 123.356C61.6856 123.333 61.6918 123.308 61.6929 123.282C61.6939 123.256 61.6897 123.23 61.6808 123.206C61.6626 123.158 61.6259 123.118 61.5789 123.096C61.5319 123.075 61.4782 123.072 61.4293 123.09C49.6788 127.27 37.7255 130.856 25.6146 133.836C25.5338 133.849 16.3002 135.498 11.3546 131.462C11.3348 131.445 11.3119 131.433 11.2872 131.425C11.2626 131.418 11.2362 131.415 11.2105 131.418C11.1849 131.42 11.1604 131.428 11.1377 131.44C11.1149 131.452 11.0948 131.469 11.0785 131.489C11.062 131.508 11.0494 131.531 11.0418 131.556C11.0342 131.581 11.0316 131.607 11.0341 131.632C11.0366 131.658 11.0444 131.683 11.0566 131.705C11.0688 131.728 11.0854 131.748 11.1053 131.764C14.0309 133.791 17.5461 134.789 21.0999 134.603Z" fill="#183C61"/>
<path d="M46.7741 69.2083C48.1984 68.1481 47.3138 64.5492 44.7983 61.17C42.2828 57.7907 39.089 55.9108 37.6648 56.971C36.2405 58.0312 37.1251 61.63 39.6406 65.0093C42.1561 68.3885 45.3499 70.2685 46.7741 69.2083Z" fill="#183C61"/>
<path d="M47.6311 50.25C43.228 53.8526 38.3324 56.8072 33.0928 59.0237C32.4246 62.3511 32.9516 65.8075 34.5807 68.7847C35.4394 70.0619 36.677 71.0378 38.1191 71.5752C39.5613 72.1125 41.1356 72.1843 42.6206 71.7803C44.7384 68.892 47.6792 66.7107 51.0577 65.5221L47.6311 50.25Z" fill="white"/>
<path d="M48.2632 47.8125C47.145 48.7436 46.1348 49.7974 45.2518 50.954C44.9245 51.5229 44.743 52.1638 44.7226 52.8198C44.7023 53.4758 44.8438 54.1266 45.1351 54.7147L50.7317 49.4708L48.2632 47.8125Z" fill="#3F1E18"/>
<path d="M59.4947 65.2005C58.0945 66.2282 57.262 67.3793 56.176 68.2006C55.4601 68.7427 54.6358 69.1237 53.759 69.3173C52.8821 69.511 51.9736 69.5128 51.096 69.3225C49.6948 69.0348 48.3893 68.3961 47.3023 67.4664C46.2152 66.5367 45.3819 65.3463 44.8803 64.0067C43.7129 61.1966 43.5832 58.0629 44.5144 55.1659C45.4455 52.2689 47.3764 49.7976 49.9625 48.1939C55.6777 44.2042 61.6891 46.0802 63.8253 48.912C65.0528 50.4525 65.8203 52.3084 66.0391 54.266C66.2578 56.2236 65.919 58.2032 65.0617 59.9767C63.571 62.07 61.6786 63.8458 59.4947 65.2005Z" fill="white"/>
<path d="M60.2439 45.5216C60.0862 44.8412 59.6919 44.2391 59.1313 43.8227C58.5706 43.4063 57.8801 43.2028 57.1832 43.2485C55.4951 43.262 53.8358 43.6877 52.3497 44.4886C50.8636 45.2896 49.5957 46.4414 48.6562 47.844C48.8494 48.2613 49.1402 48.6261 49.5037 48.9077C49.8673 49.1893 50.2933 49.3793 50.7457 49.4619C52.5924 49.7693 54.8404 51.2144 58.0537 49.3946C58.8884 52.913 62.3781 53.7859 65.073 59.9679C65.073 59.9679 66.6212 63.8027 67.7163 63.4594C68.652 63.1677 69.7018 61.1324 68.1962 57.8496C68.1962 57.8496 69.4349 59.5415 70.319 59.4921C71.4836 59.4293 70.1128 56.4808 68.8136 55.3163C68.8136 55.3163 72.7154 56.4113 72.031 53.7455C71.3466 51.0797 66.6234 49.7065 66.6234 49.7065C66.6234 49.7065 68.4026 49.159 67.5207 47.6533C66.6388 46.1477 61.8169 44.4243 60.2439 45.5216Z" fill="#3F1E18"/>
<path d="M51.2866 49.6933C50.2971 51.0958 48.744 51.7128 47.8151 51.0396C46.8861 50.3665 46.9356 48.7172 47.9252 47.3148C48.9147 45.9124 50.4678 45.2953 51.3968 45.9685C52.3257 46.6416 52.2762 48.2887 51.2866 49.6933Z" fill="white"/>
<path d="M49.4353 50.0518C49.4563 50.0517 49.4769 50.045 49.4939 50.0325C49.5108 50.0199 49.5233 50.0023 49.5295 49.9822L50.5347 46.6814C50.5425 46.6564 50.5398 46.6294 50.5276 46.6063C50.5154 46.5831 50.4945 46.5657 50.4696 46.558C50.4449 46.5515 50.4186 46.5546 50.3961 46.5667C50.3737 46.5788 50.3567 46.5989 50.3485 46.623L49.3432 49.9238C49.3355 49.9488 49.3381 49.9759 49.3503 49.999C49.3625 50.0222 49.3834 50.0395 49.4084 50.0472L49.4353 50.0518Z" fill="#0A1A29"/>
<path d="M60.3824 64.4531C60.3824 64.4531 59.2404 66.8429 58.4349 67.1121C57.3017 67.4914 56.4824 65.8847 56.4824 65.8847L60.3824 64.4531Z" fill="white"/>
<path d="M58.0816 67.2586C58.2129 67.2577 58.343 67.2358 58.4673 67.1935C59.302 66.9153 60.4241 64.5816 60.4712 64.4829C60.4769 64.4713 60.4799 64.4586 60.4806 64.4458C60.4812 64.4329 60.4795 64.42 60.4751 64.4078C60.4707 64.3957 60.4641 64.3846 60.4554 64.3751C60.4466 64.3656 60.4359 64.3581 60.4241 64.3528C60.4006 64.342 60.374 64.3408 60.3496 64.3496C60.3253 64.3584 60.3049 64.3765 60.2937 64.3999C59.9818 65.0551 59.0326 66.7986 58.4043 67.0073C57.3698 67.3551 56.578 65.8449 56.5713 65.8292C56.5589 65.8064 56.5384 65.7894 56.5137 65.7815C56.4891 65.7736 56.462 65.7753 56.4387 65.7866C56.4155 65.7985 56.3985 65.8192 56.3905 65.8439C56.3825 65.8687 56.3847 65.8958 56.3965 65.919C56.4257 65.9796 57.0898 67.2586 58.0816 67.2586Z" fill="#0A1A29"/>
<path d="M60.9985 60.4557C61.0329 60.4559 61.0667 60.447 61.0966 60.4301C61.1265 60.4132 61.1513 60.3889 61.1689 60.3593C61.1952 60.3143 61.2028 60.2607 61.1897 60.2103C61.1767 60.1599 61.1441 60.1166 61.0993 60.0899C59.3026 59.0778 57.9537 57.4258 57.321 55.4631C57.3041 55.4138 57.2684 55.373 57.2218 55.3496C57.1753 55.3261 57.1214 55.3217 57.0717 55.3374C57.0225 55.3538 56.9816 55.3888 56.9578 55.4349C56.9339 55.481 56.9291 55.5345 56.9441 55.5842C57.6063 57.6385 59.0178 59.3682 60.8977 60.4288C60.9284 60.4466 60.9631 60.456 60.9985 60.4557Z" fill="#0A1A29"/>
<path d="M58.2893 61.1332C58.3022 61.1326 58.3148 61.1294 58.3265 61.1239C58.3383 61.1184 58.349 61.1106 58.3578 61.101C58.3665 61.0914 58.3731 61.0802 58.3775 61.068C58.3819 61.0558 58.3841 61.0429 58.3835 61.0299C58.2941 60.0138 57.9741 59.0314 57.4478 58.1576C57.4413 58.1464 57.4324 58.1367 57.4221 58.1289C57.4117 58.1211 57.4001 58.1154 57.3875 58.1123C57.375 58.1092 57.362 58.1085 57.3492 58.1105C57.3364 58.1125 57.324 58.1172 57.313 58.1241C57.2909 58.1376 57.275 58.1593 57.2687 58.1845C57.2624 58.2097 57.2658 58.2364 57.2791 58.2587C57.7899 59.1033 58.1008 60.0534 58.1879 61.0366C58.1882 61.0496 58.1915 61.0624 58.1967 61.0743C58.2019 61.0861 58.2092 61.0968 58.2186 61.1058C58.228 61.1147 58.2388 61.1218 58.2509 61.1265C58.263 61.1311 58.2763 61.1335 58.2893 61.1332Z" fill="#0A1A29"/>
<path d="M55.0377 67.0975C55.059 67.097 55.08 67.0897 55.0969 67.0768C55.1138 67.0639 55.1258 67.0461 55.1319 67.0257C55.1353 67.0132 55.1363 67.0001 55.1347 66.9872C55.133 66.9743 55.1291 66.9619 55.1226 66.9506C55.1162 66.9394 55.1077 66.9295 55.0974 66.9216C55.0872 66.9137 55.0749 66.9079 55.0624 66.9045C54.6771 66.7851 54.3218 66.5853 54.0193 66.3185C53.7169 66.0516 53.4742 65.7236 53.3077 65.3562C52.5766 63.8175 52.4014 62.0729 52.8119 60.4196C52.8205 60.3949 52.8189 60.3678 52.8075 60.3443C52.7962 60.3207 52.7763 60.3026 52.7516 60.294C52.7269 60.286 52.7 60.2878 52.6766 60.2991C52.6532 60.3103 52.6348 60.3302 52.6256 60.3545C52.1891 62.0608 52.3696 63.8664 53.1351 65.4526C53.3137 65.8445 53.5734 66.1941 53.8971 66.478C54.2209 66.7619 54.6012 66.9738 55.0131 67.0997L55.0377 67.0975Z" fill="#0A1A29"/>
<path d="M46.8504 69.1457C43.792 69.8188 41.151 67.6423 38.8286 64.1822C36.7462 61.0789 36.7463 57.8993 37.7987 56.8828L31.6279 59.093L32.3883 70.1398L42.9011 73.187L46.8504 69.1457Z" fill="#D44631"/>
<path d="M58.3744 69.6016C58.3744 69.6016 79.8801 98.5209 92.3337 114.008C98.4663 121.638 101.724 125.363 104.956 127.158C108.288 129.009 114.748 128.867 117.97 131.836C122.606 136.115 119.108 144.29 107.466 147.595C95.4548 151.006 90.774 147.501 90.0739 144.651C89.3177 141.572 91.7325 139.178 91.7437 134.446C91.7549 129.713 81.8453 110.791 73.323 97.9779C64.8007 85.1653 55.0645 71.2912 55.0645 71.2912L58.3744 69.6016Z" fill="#D44631"/>
<path d="M58.3052 68.0259C57.576 67.0228 55.9491 67.3976 54.9394 68.0259C53.9296 68.6542 53.1665 69.5742 53.9182 70.8532C54.7036 72.1883 56.9274 71.1516 57.3739 70.9317C57.6473 70.8268 57.8937 70.6619 58.0949 70.449C58.296 70.2362 58.447 69.981 58.5364 69.7021C58.6258 69.4232 58.6515 69.1277 58.6115 68.8376C58.5715 68.5475 58.4667 68.2702 58.3052 68.0259Z" fill="#D44631"/>
<path d="M55.3225 71.6263C55.3398 71.6261 55.3568 71.6215 55.3718 71.6128L56.8531 70.7714C56.8645 70.7651 56.8741 70.7565 56.8821 70.7463C56.8902 70.7361 56.8961 70.7245 56.8997 70.7119C56.9032 70.6994 56.9045 70.6864 56.903 70.6735C56.9014 70.6605 56.8973 70.648 56.8909 70.6366C56.8846 70.6253 56.8764 70.6152 56.8663 70.6072C56.8561 70.5991 56.8443 70.5932 56.8317 70.5896C56.8192 70.5861 56.8063 70.5851 56.7934 70.5866C56.7805 70.5882 56.7675 70.5922 56.7561 70.5985L55.2754 71.44C55.2528 71.4531 55.2366 71.4746 55.2299 71.4999C55.2232 71.5251 55.2267 71.552 55.2398 71.5746C55.2479 71.5897 55.2597 71.6024 55.2743 71.6115C55.2888 71.6205 55.3053 71.6256 55.3225 71.6263Z" fill="#0A1A29"/>
<path d="M90.1147 141.683C90.1562 141.682 90.1966 141.669 90.23 141.644C90.2634 141.62 90.2882 141.586 90.3009 141.546C93.3684 131.897 103.627 130.775 103.731 130.764C103.757 130.762 103.783 130.754 103.807 130.741C103.83 130.728 103.851 130.711 103.867 130.69C103.884 130.669 103.896 130.645 103.903 130.619C103.91 130.593 103.912 130.566 103.908 130.54C103.906 130.513 103.899 130.486 103.887 130.462C103.874 130.438 103.857 130.417 103.836 130.4C103.815 130.384 103.79 130.372 103.764 130.365C103.738 130.358 103.71 130.358 103.684 130.362C103.578 130.362 93.0654 131.511 89.9172 141.416C89.9017 141.465 89.9064 141.519 89.9303 141.566C89.9543 141.612 89.9956 141.647 90.0451 141.663C90.0669 141.673 90.0905 141.68 90.1147 141.683Z" fill="#0A1A29"/>
<path d="M94.1367 141.805C94.8547 144.624 100.096 145.721 105.845 144.256C111.594 142.791 115.669 139.319 114.951 136.499C114.233 133.678 108.991 132.583 103.245 134.048C97.4979 135.514 93.4186 138.994 94.1367 141.805Z" fill="#0A1A29"/>
<path d="M99.8232 161.88C99.849 161.879 99.8744 161.873 99.898 161.863C99.9216 161.852 99.943 161.837 99.9607 161.819C99.9785 161.8 99.9924 161.778 100.002 161.754C100.011 161.729 100.015 161.704 100.014 161.678L99.4551 141.848C99.457 141.822 99.4529 141.795 99.4433 141.771C99.4336 141.746 99.4188 141.724 99.3995 141.705C99.3801 141.687 99.3568 141.673 99.3315 141.665C99.3063 141.657 99.2796 141.654 99.2532 141.658C99.2012 141.659 99.152 141.682 99.1162 141.72C99.0805 141.757 99.0613 141.808 99.0626 141.86L99.6213 161.689C99.6231 161.741 99.6452 161.79 99.683 161.826C99.7208 161.862 99.7712 161.881 99.8232 161.88Z" fill="#0A1A29"/>
<path d="M107.73 154.373H107.773C107.821 154.361 107.863 154.332 107.891 154.29C107.918 154.248 107.929 154.198 107.921 154.149L105.037 141.253C105.027 141.204 104.997 141.161 104.955 141.133C104.913 141.106 104.862 141.096 104.813 141.105C104.764 141.117 104.722 141.147 104.695 141.188C104.667 141.23 104.657 141.28 104.665 141.329L107.548 154.225C107.559 154.266 107.582 154.302 107.615 154.329C107.647 154.356 107.688 154.371 107.73 154.373Z" fill="#0A1A29"/>
<path d="M119.058 154.232C119.095 154.232 119.132 154.222 119.163 154.201C119.185 154.187 119.204 154.169 119.219 154.148C119.233 154.127 119.244 154.103 119.249 154.077C119.255 154.052 119.255 154.026 119.25 154.001C119.246 153.975 119.236 153.951 119.222 153.929L109.759 139.216C109.745 139.194 109.728 139.175 109.706 139.16C109.685 139.145 109.661 139.135 109.636 139.129C109.61 139.124 109.584 139.124 109.559 139.128C109.533 139.133 109.509 139.143 109.488 139.158C109.466 139.172 109.447 139.19 109.432 139.211C109.418 139.232 109.407 139.256 109.402 139.281C109.396 139.307 109.396 139.333 109.401 139.358C109.405 139.384 109.415 139.408 109.429 139.43L118.892 154.143C118.91 154.171 118.934 154.194 118.963 154.209C118.992 154.225 119.025 154.233 119.058 154.232Z" fill="#0A1A29"/>
<path d="M119.474 142.639C119.502 142.639 119.53 142.633 119.556 142.621C119.581 142.61 119.604 142.593 119.622 142.571C119.64 142.552 119.653 142.529 119.661 142.505C119.67 142.48 119.673 142.454 119.672 142.428C119.67 142.403 119.663 142.377 119.651 142.354C119.64 142.331 119.624 142.31 119.604 142.293L112.801 136.392C112.761 136.357 112.71 136.34 112.657 136.344C112.605 136.348 112.557 136.372 112.523 136.412C112.505 136.431 112.492 136.454 112.484 136.479C112.476 136.503 112.472 136.529 112.474 136.555C112.476 136.581 112.483 136.607 112.495 136.63C112.507 136.653 112.523 136.673 112.543 136.69L119.346 142.591C119.382 142.622 119.427 142.639 119.474 142.639Z" fill="#0A1A29"/>
<path d="M0.450049 217.699C0.476277 217.699 0.502079 217.694 0.526197 217.684L23.7683 207.831C23.8165 207.811 23.8548 207.772 23.8746 207.724C23.8944 207.675 23.8942 207.621 23.8741 207.573C23.864 207.549 23.8492 207.527 23.8308 207.509C23.8123 207.491 23.7907 207.477 23.7667 207.467C23.7427 207.458 23.7169 207.453 23.6911 207.453C23.6652 207.454 23.6397 207.459 23.616 207.47L0.373353 217.323C0.325209 217.343 0.28739 217.381 0.267622 217.43C0.247854 217.478 0.248031 217.532 0.26817 217.581C0.283759 217.616 0.309328 217.646 0.341579 217.667C0.37383 217.688 0.411508 217.699 0.450049 217.699Z" fill="#0A1A29"/>
<path d="M61.4725 181.764L39.314 147.069L61.7639 141.235L63.7838 140.148C63.7838 140.148 87.4276 167.475 91.5115 177.097C95.5954 186.719 90.0531 193.715 83.3484 200.714C76.6436 207.713 35.8248 243.864 35.8248 243.864C35.8248 243.864 22.1213 236.865 18.623 222.581L61.4725 181.764Z" fill="#3F1E18"/>
<path d="M294.741 204.243C294.772 204.243 294.803 204.234 294.83 204.218C294.856 204.201 294.878 204.177 294.891 204.149C294.961 204.005 301.847 189.774 294.869 181.678C294.84 181.648 294.802 181.629 294.76 181.626C294.718 181.622 294.677 181.635 294.644 181.66C294.614 181.689 294.595 181.727 294.591 181.769C294.588 181.811 294.601 181.852 294.626 181.885C301.455 189.815 294.674 203.85 294.604 203.99C294.584 204.029 294.582 204.075 294.596 204.117C294.61 204.159 294.64 204.194 294.68 204.214C294.698 204.228 294.719 204.238 294.741 204.243Z" fill="#3F1E18"/>
<path d="M196.976 177.505C199.901 177.606 202.807 176.996 205.445 175.727C208.082 174.458 210.372 172.568 212.118 170.219C212.141 170.183 212.149 170.139 212.141 170.098C212.132 170.056 212.108 170.019 212.073 169.994C212.037 169.972 211.994 169.964 211.952 169.972C211.91 169.98 211.873 170.005 211.849 170.039C210.06 172.431 207.7 174.337 204.985 175.582C202.27 176.828 199.286 177.373 196.305 177.168C193.907 177.243 191.528 176.713 189.389 175.626C187.25 174.539 185.419 172.931 184.065 170.95C184.043 170.913 184.007 170.886 183.965 170.874C183.923 170.863 183.878 170.868 183.84 170.89C183.803 170.912 183.776 170.948 183.765 170.99C183.753 171.032 183.759 171.076 183.78 171.114C185.162 173.145 187.033 174.794 189.221 175.91C191.41 177.026 193.844 177.572 196.299 177.498C196.516 177.503 196.747 177.505 196.976 177.505Z" fill="#3F1E18"/>
<path d="M192.446 183.743C193.749 183.733 195.047 183.577 196.314 183.277C196.357 183.266 196.395 183.24 196.418 183.203C196.442 183.165 196.449 183.12 196.44 183.077C196.43 183.034 196.403 182.997 196.366 182.973C196.329 182.95 196.283 182.942 196.24 182.952C190.902 184.172 186.87 183.03 183.912 179.462C183.885 179.431 183.846 179.411 183.805 179.407C183.763 179.403 183.721 179.414 183.688 179.44C183.657 179.468 183.638 179.506 183.634 179.548C183.63 179.589 183.641 179.63 183.665 179.664C184.716 180.974 186.055 182.024 187.578 182.732C189.101 183.439 190.767 183.785 192.446 183.743Z" fill="#3F1E18"/>
<path d="M206.59 262.28C199.367 255.414 191.574 251.889 189.182 254.407C186.79 256.924 190.703 264.529 197.933 271.395C205.163 278.262 212.949 281.787 215.341 279.269C217.733 276.751 213.822 269.147 206.59 262.28Z" fill="#D44631"/>
<path d="M192.263 254.422L179.286 271.718C179.286 271.718 176.638 276.43 177.94 280.13C179.777 284.224 183.063 287.494 187.167 289.31C191.69 290.831 193.968 290.779 195.848 288.56C197.729 286.341 213.692 267.862 213.692 267.862C213.692 267.862 202.116 249.709 192.263 254.422Z" fill="white"/>
<path d="M197.212 287.014C197.259 286.193 194.418 288.062 189.3 285.966C184.182 283.87 180.457 279.907 179.99 276.656C179.523 273.405 180.107 271.419 179.409 270.954C178.711 270.49 175.569 274.446 170.449 273.748C165.328 273.05 158.464 269.442 156.718 270.831C154.973 272.22 157.694 275.213 158.929 276.649C164.613 283.278 170.8 289.46 177.434 295.139C179.952 297.13 184.992 301.308 186.042 301.086C188.259 300.628 196.979 291.085 197.212 287.014Z" fill="#D44631"/>
<path d="M173.183 279.46C173.207 279.46 173.231 279.455 173.253 279.445C173.275 279.435 173.295 279.422 173.312 279.404C173.329 279.387 173.342 279.366 173.35 279.344C173.359 279.322 173.363 279.298 173.363 279.274L173.271 273.875C173.27 273.827 173.251 273.781 173.217 273.748C173.183 273.714 173.137 273.695 173.089 273.695C173.065 273.696 173.041 273.701 173.019 273.71C172.997 273.72 172.977 273.734 172.96 273.751C172.943 273.768 172.93 273.789 172.922 273.811C172.913 273.834 172.909 273.858 172.909 273.882L173.004 279.28C173.004 279.328 173.023 279.373 173.057 279.407C173.09 279.44 173.136 279.459 173.183 279.46Z" fill="#3F1E18"/>
<path d="M169.644 278.606C169.692 278.606 169.738 278.588 169.772 278.554C169.806 278.52 169.825 278.475 169.826 278.427L169.92 273.679C169.921 273.655 169.916 273.631 169.908 273.608C169.899 273.586 169.886 273.565 169.869 273.548C169.853 273.531 169.832 273.517 169.81 273.507C169.788 273.498 169.765 273.493 169.741 273.493C169.716 273.491 169.692 273.494 169.669 273.503C169.646 273.511 169.625 273.524 169.608 273.541C169.59 273.558 169.576 273.579 169.567 273.601C169.558 273.624 169.554 273.648 169.554 273.672L169.46 278.42C169.459 278.444 169.464 278.468 169.472 278.49C169.481 278.513 169.494 278.533 169.511 278.551C169.528 278.568 169.547 278.582 169.57 278.591C169.592 278.601 169.615 278.606 169.639 278.606H169.644Z" fill="#3F1E18"/>
<path d="M188.82 299.185C188.851 299.185 188.883 299.177 188.91 299.161C188.938 299.146 188.961 299.123 188.977 299.096C188.989 299.075 188.997 299.052 189 299.028C189.003 299.005 189.002 298.981 188.996 298.957C188.99 298.934 188.979 298.912 188.965 298.893C188.95 298.874 188.932 298.858 188.912 298.846C182.729 294.925 176.943 290.412 171.634 285.372C166.685 280.821 162.177 275.812 158.17 270.414C158.157 270.394 158.139 270.378 158.119 270.365C158.099 270.352 158.076 270.343 158.053 270.339C158.029 270.335 158.005 270.335 157.982 270.34C157.958 270.346 157.936 270.355 157.917 270.369C157.897 270.383 157.88 270.4 157.867 270.42C157.854 270.44 157.846 270.463 157.842 270.486C157.837 270.51 157.838 270.534 157.843 270.558C157.848 270.581 157.858 270.603 157.872 270.622C161.896 276.042 166.424 281.07 171.393 285.639C176.724 290.698 182.534 295.227 188.741 299.16C188.765 299.175 188.792 299.183 188.82 299.185Z" fill="#3F1E18"/>
<path d="M190.401 280.564C190.427 280.563 190.452 280.558 190.476 280.548L194.479 278.78C194.5 278.77 194.52 278.756 194.537 278.739C194.553 278.721 194.566 278.701 194.574 278.678C194.583 278.656 194.587 278.633 194.586 278.609C194.586 278.585 194.58 278.562 194.571 278.54C194.561 278.518 194.547 278.498 194.53 278.481C194.513 278.465 194.492 278.451 194.47 278.442C194.448 278.434 194.424 278.429 194.4 278.43C194.376 278.43 194.352 278.436 194.33 278.446L190.327 280.213C190.305 280.223 190.285 280.237 190.269 280.254C190.252 280.271 190.239 280.291 190.23 280.314C190.221 280.336 190.217 280.36 190.218 280.384C190.218 280.408 190.223 280.431 190.233 280.453C190.247 280.486 190.271 280.514 190.301 280.534C190.331 280.553 190.366 280.564 190.401 280.564Z" fill="#3F1E18"/>
<path d="M228.802 258.898C228.295 263.075 226.725 267.053 224.24 270.449C221.51 273.582 218.55 276.507 215.386 279.201C215.386 279.201 216.452 274.116 206.291 263.296C196.131 252.476 188.755 255.011 188.755 255.011C188.755 255.011 202.685 233.427 208.928 224.719C215.17 216.01 220.262 216.234 226.942 215.487C233.622 214.74 229.432 254.004 228.802 258.898Z" fill="#3F1E18"/>
<path d="M218.032 260.119C218.06 260.119 218.087 260.113 218.111 260.101C218.154 260.08 218.188 260.043 218.204 259.998C218.22 259.952 218.217 259.902 218.196 259.859C215.932 255.754 212.876 252.138 209.206 249.221C205.536 246.305 201.324 244.145 196.814 242.866C196.767 242.853 196.718 242.859 196.676 242.883C196.634 242.907 196.603 242.947 196.59 242.994C196.583 243.017 196.581 243.041 196.584 243.064C196.587 243.088 196.595 243.112 196.607 243.132C196.619 243.153 196.635 243.171 196.654 243.186C196.673 243.201 196.695 243.212 196.718 243.218C201.178 244.482 205.343 246.617 208.973 249.501C212.603 252.384 215.625 255.958 217.866 260.016C217.881 260.047 217.905 260.073 217.934 260.091C217.964 260.11 217.998 260.119 218.032 260.119Z" fill="#D44631"/>
<path d="M237.144 256.853C227.298 258.376 219.745 262.395 220.276 265.828C220.808 269.261 229.221 270.808 239.069 269.282C248.918 267.756 256.469 263.739 255.937 260.306C255.405 256.873 246.99 255.329 237.144 256.853Z" fill="#D44631"/>
<path d="M220.276 265.848L225.754 284.827C225.754 284.827 227.899 289.777 231.646 290.977C236.018 291.991 240.609 291.351 244.537 289.182C248.484 286.489 249.82 284.654 249.189 281.813C248.559 278.972 243.489 255.086 243.489 255.086C243.489 255.086 222.475 255.147 220.276 265.848Z" fill="white"/>
<path d="M249.332 281.816C248.749 281.235 248.264 284.601 243.299 287.043C238.333 289.484 232.905 289.645 230.158 287.832C227.412 286.019 226.317 284.271 225.507 284.484C224.697 284.697 225.572 289.674 221.652 293.04C217.732 296.406 210.78 300.645 210.656 302.878C210.533 305.11 214.058 304.74 216.042 304.673C224.831 304.275 233.59 303.386 242.28 302.009C245.439 301.446 251.908 300.438 252.44 299.514C253.573 297.553 252.225 284.691 249.332 281.816Z" fill="#D44631"/>
<path d="M227.603 294.837C227.629 294.837 227.655 294.832 227.679 294.821C227.703 294.81 227.725 294.794 227.742 294.774C227.758 294.756 227.77 294.735 227.777 294.712C227.785 294.689 227.788 294.665 227.786 294.641C227.784 294.617 227.777 294.593 227.766 294.572C227.755 294.55 227.74 294.531 227.722 294.516L223.62 291.004C223.583 290.973 223.535 290.958 223.487 290.962C223.438 290.965 223.393 290.988 223.362 291.025C223.33 291.061 223.315 291.109 223.319 291.157C223.323 291.204 223.345 291.249 223.382 291.28L227.484 294.792C227.517 294.821 227.559 294.837 227.603 294.837Z" fill="#3F1E18"/>
<path d="M224.629 296.931C224.654 296.931 224.679 296.926 224.702 296.916C224.725 296.906 224.745 296.891 224.762 296.873C224.779 296.856 224.793 296.836 224.802 296.814C224.811 296.792 224.816 296.768 224.816 296.744C224.816 296.72 224.811 296.696 224.802 296.674C224.793 296.652 224.779 296.632 224.762 296.615L221.273 293.397C221.256 293.38 221.236 293.367 221.213 293.357C221.191 293.348 221.168 293.344 221.144 293.344C221.12 293.344 221.096 293.348 221.074 293.357C221.052 293.367 221.032 293.38 221.015 293.397C220.998 293.414 220.984 293.434 220.975 293.457C220.966 293.479 220.961 293.502 220.961 293.526C220.961 293.55 220.966 293.574 220.975 293.596C220.984 293.618 220.998 293.639 221.015 293.655L224.506 296.873C224.538 296.908 224.582 296.929 224.629 296.931Z" fill="#3F1E18"/>
<path d="M218.984 300.812C222.224 300.812 226.427 300.684 231.175 300.231C238.496 299.599 245.738 298.257 252.799 296.223C252.844 296.208 252.881 296.176 252.903 296.135C252.925 296.093 252.929 296.044 252.916 295.999C252.9 295.954 252.869 295.917 252.827 295.896C252.785 295.874 252.737 295.869 252.692 295.882C245.657 297.908 238.443 299.245 231.15 299.874C224.927 300.492 218.665 300.618 212.422 300.253C212.398 300.251 212.374 300.253 212.351 300.26C212.328 300.268 212.307 300.28 212.288 300.295C212.27 300.311 212.255 300.331 212.245 300.352C212.234 300.374 212.228 300.397 212.227 300.421C212.225 300.445 212.228 300.469 212.236 300.492C212.243 300.515 212.255 300.536 212.271 300.554C212.286 300.572 212.305 300.587 212.327 300.598C212.348 300.609 212.372 300.615 212.396 300.617C213.116 300.664 215.49 300.812 218.984 300.812Z" fill="#3F1E18"/>
<path d="M281.473 187.779C281.674 192.568 280.428 197.308 277.897 201.379C273.678 208.09 264.444 208.705 262.189 212.809C259.934 216.914 261.575 220.605 256.856 224.094C253.359 226.489 249.565 228.42 245.571 229.838C245.327 231.178 245.425 232.557 245.856 233.849C246.288 235.14 247.039 236.302 248.04 237.225C251.038 240.179 253.227 243.853 254.399 247.895C255.215 251.972 255.725 256.104 255.927 260.257C255.927 260.257 252.561 256.307 237.78 257.743C223 259.179 220.502 266.569 220.502 266.569C220.502 266.569 211.922 242.357 208.834 232.098C205.746 221.839 209.04 217.941 212.527 212.197C216.014 206.452 238.781 174.445 238.781 174.445L281.473 187.779Z" fill="#3F1E18"/>
<path d="M239.051 257.315H239.094C239.118 257.31 239.141 257.3 239.161 257.286C239.181 257.272 239.198 257.253 239.211 257.232C239.223 257.211 239.232 257.188 239.235 257.164C239.239 257.139 239.237 257.115 239.231 257.091C239.161 256.792 232.335 227.285 232.335 222.999C232.335 218.761 257.454 190.362 257.707 190.077C257.723 190.059 257.736 190.038 257.744 190.015C257.752 189.993 257.755 189.968 257.753 189.944C257.752 189.92 257.746 189.897 257.735 189.875C257.725 189.854 257.71 189.835 257.692 189.819C257.655 189.787 257.608 189.771 257.559 189.774C257.511 189.777 257.466 189.799 257.434 189.835C256.395 191.008 231.97 218.624 231.97 222.999C231.97 227.328 238.592 255.958 238.874 257.174C238.883 257.214 238.906 257.25 238.938 257.276C238.97 257.301 239.01 257.315 239.051 257.315Z" fill="#D44631"/>
<path d="M242.928 231.492C242.959 231.492 242.989 231.485 243.016 231.47L245.657 229.998C245.678 229.986 245.696 229.971 245.711 229.952C245.726 229.933 245.737 229.911 245.744 229.888C245.75 229.865 245.752 229.841 245.749 229.817C245.746 229.793 245.738 229.77 245.726 229.749C245.703 229.707 245.664 229.676 245.617 229.663C245.571 229.65 245.522 229.656 245.48 229.679L242.839 231.151C242.818 231.163 242.799 231.179 242.784 231.198C242.769 231.216 242.758 231.238 242.752 231.261C242.745 231.285 242.744 231.309 242.747 231.333C242.749 231.356 242.757 231.38 242.769 231.401C242.785 231.429 242.808 231.452 242.836 231.468C242.864 231.484 242.896 231.492 242.928 231.492Z" fill="#D44631"/>
<path d="M217.549 258.515C217.576 258.515 217.603 258.509 217.628 258.498C217.652 258.486 217.674 258.469 217.691 258.448C222.619 253.027 229.242 249.441 236.474 248.276C248.3 246.508 254.504 250.789 254.565 250.832C254.584 250.846 254.606 250.855 254.63 250.861C254.653 250.866 254.677 250.866 254.701 250.862C254.724 250.858 254.747 250.849 254.767 250.836C254.787 250.823 254.805 250.807 254.818 250.787C254.832 250.767 254.842 250.746 254.847 250.722C254.853 250.699 254.853 250.675 254.849 250.651C254.846 250.628 254.837 250.605 254.824 250.585C254.812 250.565 254.795 250.547 254.776 250.533C253.337 249.631 251.767 248.959 250.122 248.539C245.651 247.357 240.98 247.144 236.421 247.915C229.099 249.095 222.395 252.727 217.408 258.217C217.377 258.254 217.363 258.303 217.368 258.351C217.373 258.399 217.397 258.444 217.435 258.475C217.467 258.501 217.508 258.515 217.549 258.515Z" fill="#D44631"/>
<path d="M208.845 232.076C209.436 234.051 210.237 236.551 211.134 239.291C216.017 237.199 220.213 230.854 221.456 222.865C222.594 215.46 220.866 208.628 217.397 204.914C215.117 208.231 213.338 210.883 212.552 212.18C209.052 217.927 205.765 221.817 208.845 232.076Z" fill="#D44631"/>
<path d="M220.363 266.79C220.384 266.794 220.405 266.794 220.426 266.79C220.469 266.774 220.505 266.741 220.525 266.7C220.546 266.658 220.549 266.61 220.535 266.565C217.589 258.283 214.54 249.079 211.468 239.212C211.454 239.167 211.422 239.129 211.38 239.107C211.338 239.085 211.289 239.08 211.243 239.093C211.198 239.108 211.161 239.14 211.138 239.181C211.116 239.223 211.111 239.272 211.125 239.318C214.197 249.191 217.25 258.391 220.197 266.693C220.213 266.723 220.237 266.748 220.266 266.765C220.295 266.782 220.329 266.791 220.363 266.79Z" fill="#D44631"/>
<path d="M287.013 112.56C285.614 113.534 284.487 114.849 283.739 116.38C282.991 117.912 282.646 119.609 282.738 121.311C282.738 121.311 274.362 124.657 269.674 123.719C264.987 122.781 268.103 118.423 268.103 118.423C270.187 115.96 271.378 112.865 271.48 109.641L287.013 112.56Z" fill="white"/>
<path d="M287.486 112.977C285.313 114.906 282.583 116.097 279.691 116.376C276.891 116.4 274.1 116.059 271.388 115.36C271.388 115.36 267.091 120.644 267.246 122.7C267.401 124.755 262.22 115.901 262.22 115.901L268.66 106.456L280.611 106.297L287.486 112.977Z" fill="#3F1E18"/>
<path d="M282.629 93.9375C281.483 93.9501 280.37 94.3198 279.445 94.9952C278.52 95.6706 277.829 96.618 277.468 97.705L282.956 97.2742L284.408 95.8223L282.629 93.9375Z" fill="#3F1E18"/>
<path d="M294.957 101.115C294.957 101.115 295.511 98.6758 292.383 96.9704C289.255 95.2651 288.512 95.9046 286.111 94.7265C283.331 93.3667 281.376 91.1587 280.452 91.585C279.527 92.0114 281.091 94.713 281.944 95.5657C282.797 96.4183 289.623 102.89 289.623 102.89L290.406 110.295C292.26 108.921 293.911 107.293 295.311 105.459C296.734 103.318 295.953 101.115 294.957 101.115Z" fill="#3F1E18"/>
<path d="M275.096 99.6007C273.959 100.738 272.79 101.34 271.885 102.222C271.289 102.801 270.826 103.501 270.526 104.276C270.226 105.05 270.096 105.88 270.146 106.709C270.214 108.033 270.616 109.318 271.316 110.443C272.016 111.569 272.99 112.499 274.147 113.145C276.558 114.607 279.41 115.163 282.194 114.715C284.978 114.266 287.511 112.842 289.341 110.697C293.793 106.021 292.915 100.249 290.62 97.9067C289.337 96.6846 287.744 95.839 286.013 95.4626C284.282 95.0862 282.481 95.1934 280.807 95.7727C278.54 96.3984 276.536 97.7414 275.096 99.6007Z" fill="white"/>
<path d="M290.763 109.224C290.408 107.09 292.183 102.816 291.615 101.191C290.756 98.7226 284.397 98.0921 281.908 95.5341L284.222 94.3672C286.676 95.2636 289.053 96.3578 291.33 97.6388L294.247 102.688C293.747 105.159 292.536 107.431 290.763 109.224Z" fill="#3F1E18"/>
<path d="M289.346 109.118C287.924 109.827 287.149 111.166 287.62 112.109C288.092 113.051 289.624 113.231 291.047 112.528C292.47 111.826 293.244 110.48 292.773 109.537C292.301 108.595 290.769 108.409 289.346 109.118Z" fill="white"/>
<path d="M288.473 110.457L292.016 110.416C292.04 110.416 292.063 110.406 292.08 110.388C292.096 110.371 292.106 110.348 292.106 110.324C292.105 110.3 292.095 110.277 292.078 110.261C292.061 110.244 292.038 110.234 292.014 110.234L288.471 110.275C288.459 110.275 288.447 110.277 288.436 110.282C288.425 110.287 288.415 110.293 288.406 110.302C288.398 110.31 288.391 110.321 288.387 110.332C288.383 110.343 288.381 110.355 288.381 110.367C288.381 110.391 288.391 110.414 288.409 110.43C288.426 110.447 288.449 110.457 288.473 110.457Z" fill="#3F1E18"/>
<path d="M276.388 104.239C276.4 104.239 276.413 104.237 276.424 104.232C276.435 104.227 276.445 104.219 276.453 104.21C276.462 104.202 276.469 104.192 276.473 104.181C276.478 104.17 276.48 104.158 276.48 104.146C276.48 104.134 276.478 104.123 276.473 104.112C276.469 104.101 276.462 104.091 276.453 104.082C276.442 104.071 275.307 102.976 275.89 102.141C276.24 101.639 278.04 101.255 278.704 101.149C278.728 101.146 278.749 101.133 278.763 101.113C278.777 101.094 278.784 101.07 278.78 101.046C278.778 101.034 278.774 101.023 278.768 101.013C278.761 101.002 278.753 100.993 278.743 100.986C278.734 100.979 278.723 100.974 278.711 100.971C278.699 100.968 278.687 100.968 278.675 100.97C278.574 100.986 276.206 101.369 275.74 102.036C275.067 102.996 276.274 104.163 276.326 104.212C276.342 104.229 276.365 104.239 276.388 104.239Z" fill="#3F1E18"/>
<path d="M276.483 107.016C276.506 107.016 276.528 107.007 276.545 106.992C276.562 106.977 276.573 106.956 276.575 106.933C276.577 106.909 276.57 106.885 276.554 106.867C276.538 106.848 276.516 106.836 276.492 106.834C275.799 106.784 275.121 106.599 274.497 106.291C274.476 106.28 274.451 106.278 274.427 106.286C274.404 106.293 274.385 106.31 274.374 106.331C274.363 106.353 274.361 106.378 274.369 106.402C274.376 106.425 274.393 106.444 274.414 106.455C275.058 106.774 275.758 106.965 276.474 107.018L276.483 107.016Z" fill="#3F1E18"/>
<path d="M278.272 107.255C278.284 107.255 278.296 107.253 278.307 107.249C278.318 107.245 278.328 107.239 278.336 107.23C278.345 107.222 278.352 107.213 278.357 107.202C278.361 107.191 278.364 107.179 278.364 107.168C278.365 107.144 278.356 107.12 278.34 107.103C278.323 107.085 278.301 107.074 278.277 107.073C277.976 107.062 277.676 107.03 277.379 106.979C277.367 106.976 277.355 106.976 277.343 106.978C277.331 106.98 277.32 106.985 277.31 106.992C277.3 106.999 277.291 107.008 277.285 107.019C277.279 107.029 277.275 107.041 277.274 107.053C277.27 107.077 277.275 107.101 277.289 107.121C277.303 107.141 277.324 107.154 277.348 107.159C277.652 107.211 277.959 107.243 278.268 107.255H278.272Z" fill="#3F1E18"/>
<path d="M286.417 104.116C286.453 104.116 286.489 104.105 286.519 104.085C286.549 104.064 286.572 104.035 286.586 104.002C286.809 103.475 286.902 102.902 286.856 102.331C286.81 101.76 286.626 101.21 286.321 100.726C286.13 100.409 285.865 100.144 285.548 99.9532C285.231 99.7627 284.872 99.6527 284.503 99.6328C284.455 99.6328 284.409 99.6517 284.375 99.6853C284.341 99.7189 284.322 99.7644 284.321 99.8122C284.321 99.8363 284.325 99.8603 284.334 99.8828C284.342 99.9052 284.356 99.9256 284.372 99.9429C284.389 99.9602 284.409 99.9742 284.431 99.9837C284.453 99.9932 284.477 99.9982 284.501 99.9985C284.811 100.018 285.111 100.114 285.376 100.276C285.641 100.438 285.862 100.663 286.02 100.93C286.292 101.365 286.454 101.86 286.493 102.372C286.533 102.884 286.447 103.398 286.244 103.869C286.236 103.892 286.231 103.915 286.232 103.939C286.232 103.963 286.238 103.987 286.247 104.008C286.257 104.03 286.271 104.05 286.288 104.067C286.305 104.083 286.325 104.096 286.348 104.105C286.37 104.113 286.394 104.117 286.417 104.116Z" fill="#3F1E18"/>
<path d="M281.248 97.7601C281.273 97.7598 281.297 97.7546 281.32 97.7445C281.342 97.735 281.362 97.7212 281.378 97.704C281.395 97.6867 281.408 97.6663 281.417 97.644C281.426 97.6217 281.43 97.5978 281.43 97.5739C281.429 97.5499 281.424 97.5264 281.414 97.5044C281.176 96.9817 280.761 96.5599 280.242 96.3136C279.723 96.0673 279.133 96.0121 278.578 96.158C278.554 96.164 278.532 96.1746 278.513 96.1891C278.494 96.2036 278.477 96.2219 278.465 96.2428C278.453 96.2636 278.445 96.2866 278.441 96.3106C278.438 96.3345 278.439 96.3591 278.445 96.3825C278.451 96.4059 278.462 96.4279 278.477 96.4473C278.491 96.4666 278.509 96.4829 278.53 96.4952C278.551 96.5075 278.574 96.5155 278.598 96.5189C278.622 96.5223 278.646 96.5209 278.67 96.5148C279.142 96.3834 279.645 96.4264 280.088 96.6357C280.531 96.845 280.884 97.2067 281.082 97.6547C281.097 97.6862 281.12 97.7128 281.15 97.7315C281.179 97.7502 281.213 97.7601 281.248 97.7601Z" fill="#3F1E18"/>
<path d="M280.652 100.758C280.195 101.306 279.957 102.005 279.986 102.718C280.014 103.431 280.306 104.109 280.805 104.62C281.389 105.031 282.104 105.211 282.813 105.124C283.522 105.038 284.174 104.692 284.642 104.153L280.652 100.758Z" fill="#3F1E18"/>
<path d="M275.595 96.4453C275.139 96.994 274.901 97.6925 274.93 98.4059C274.959 99.1192 275.251 99.7966 275.75 100.307C276.334 100.718 277.05 100.898 277.758 100.812C278.467 100.726 279.119 100.379 279.587 99.8403L275.595 96.4453Z" fill="#3F1E18"/>
<path d="M290.93 108.635C290.96 108.635 290.99 108.628 291.017 108.613C291.043 108.599 291.066 108.578 291.082 108.552C291.109 108.512 291.118 108.463 291.108 108.416C291.098 108.368 291.069 108.327 291.029 108.301L284.389 103.966C284.348 103.94 284.299 103.932 284.252 103.942C284.205 103.952 284.164 103.98 284.138 104.02C284.124 104.04 284.115 104.062 284.111 104.086C284.106 104.11 284.106 104.134 284.111 104.158C284.116 104.181 284.126 104.204 284.14 104.224C284.154 104.243 284.171 104.26 284.191 104.273L290.831 108.606C290.86 108.625 290.895 108.636 290.93 108.635Z" fill="#3F1E18"/>
<path d="M221.028 142.973C216.462 148.549 214.402 154.417 216.428 156.07C218.454 157.724 223.795 154.551 228.361 148.973C232.927 143.395 234.987 137.529 232.961 135.875C230.935 134.222 225.592 137.397 221.028 142.973Z" fill="#3F1E18"/>
<path d="M230.534 124.012C224.996 128.626 221.866 133.993 223.54 136.004C225.214 138.014 231.062 135.905 236.6 131.291C242.137 126.678 245.268 121.31 243.594 119.3C241.92 117.289 236.07 119.401 230.534 124.012Z" fill="#3F1E18"/>
<path d="M241.81 126.207L231.414 132.992L225.409 124.449L237.751 114.484C238.864 119.324 239.952 124.25 241.81 126.207Z" fill="white"/>
<path d="M222.306 107.854C222.306 107.854 211.457 103.234 210.782 105.007C210.252 106.398 217.206 110.04 220.915 111.895L222.306 107.854Z" fill="white"/>
<path d="M252.502 132.721C247.85 127.56 246.747 123.339 243.574 119.258C243.643 119.864 242.71 123.921 237.277 128.294C234.488 130.538 229.635 133.679 225.86 133.982L232.118 145.246L246.679 145.442L252.502 132.721Z" fill="#3F1E18"/>
<path d="M237.258 140.557C237.288 140.557 237.318 140.549 237.344 140.534C247.666 135.084 248.657 128.087 248.666 128.018C248.672 127.97 248.659 127.922 248.629 127.884C248.6 127.845 248.557 127.82 248.509 127.814C248.461 127.808 248.413 127.822 248.375 127.852C248.337 127.882 248.312 127.925 248.305 127.973C248.305 128.04 247.32 134.857 237.173 140.213C237.152 140.224 237.133 140.24 237.117 140.258C237.102 140.277 237.09 140.298 237.083 140.321C237.076 140.344 237.074 140.368 237.076 140.392C237.078 140.416 237.085 140.439 237.097 140.46C237.112 140.49 237.136 140.514 237.164 140.531C237.193 140.548 237.225 140.557 237.258 140.557Z" fill="#3F1E18"/>
<path d="M279.353 121.597L267.925 122.569L268.102 118.422L261.725 120.85L251.832 136.649L237.471 176.344C241.747 178.691 246.557 179.894 251.435 179.835L269.451 128.674L279.353 121.597Z" fill="white"/>
<path d="M262.767 131.763C261.67 131.987 259.381 131.505 259.123 130.401C258.901 129.022 259.188 127.61 259.928 126.427C260.936 125.776 267.914 122.695 267.914 122.695L266.119 129.876C265.136 130.717 263.997 131.358 262.767 131.763Z" fill="#FEE4E0"/>
<path d="M265.678 131.138C265.718 131.138 265.756 131.125 265.788 131.101C265.819 131.076 265.842 131.042 265.853 131.004L268.097 122.62C268.106 122.586 268.105 122.551 268.094 122.517C268.083 122.484 268.063 122.454 268.036 122.432C268.008 122.41 267.975 122.396 267.94 122.392C267.905 122.388 267.87 122.394 267.838 122.409L258.073 127.252C258.051 127.262 258.032 127.277 258.016 127.295C258 127.313 257.988 127.334 257.98 127.357C257.973 127.38 257.969 127.403 257.971 127.427C257.973 127.451 257.979 127.475 257.99 127.496C258.001 127.518 258.015 127.537 258.033 127.553C258.051 127.569 258.072 127.581 258.095 127.589C258.118 127.597 258.142 127.6 258.166 127.598C258.19 127.596 258.213 127.59 258.235 127.579L267.639 122.917L265.5 130.909C265.494 130.933 265.492 130.957 265.495 130.98C265.498 131.004 265.506 131.027 265.517 131.048C265.529 131.069 265.545 131.087 265.564 131.102C265.583 131.117 265.605 131.128 265.628 131.134L265.678 131.138Z" fill="#3F1E18"/>
<path d="M232.195 184.025C233.716 185.02 235.52 185.488 237.331 185.358C237.331 185.358 239.699 180.054 241.79 174.421C245.185 165.307 245.068 159.089 249.383 146.301C256.021 126.626 267.629 118.721 268.082 118.42C268.082 118.407 268.095 118.407 268.095 118.407C268.548 117.87 268.96 117.3 269.327 116.702C261.364 114.814 256.416 121.118 254.293 126.211C252.049 131.567 247.815 135.808 244.696 141.833C241.577 147.858 232.195 184.025 232.195 184.025Z" fill="#D44631"/>
<path d="M247.738 151.56C248.205 149.927 248.75 148.195 249.385 146.299C256.023 126.624 267.631 118.719 268.084 118.418C268.084 118.405 268.097 118.405 268.097 118.405C268.452 117.983 268.78 117.54 269.08 117.078C269.161 116.962 269.239 116.854 269.32 116.715C269.32 116.715 269.32 116.715 269.32 116.702C261.357 114.814 256.409 121.117 254.286 126.211C253.264 128.502 252.012 130.682 250.548 132.718L247.738 151.56Z" fill="#3F1E18"/>
<path d="M273.426 105.757C272.656 106.277 261.444 101.635 259.123 100.596C256.803 99.5569 250.877 96.2156 248.171 97.6315C245.465 99.0474 234.901 116.442 231.808 123.786C228.716 131.131 215.639 154.487 209.282 160.304C206.347 162.986 202.716 164.788 198.805 165.502C194.893 166.217 190.86 165.815 187.166 164.343C178.792 160.753 177.365 150.879 181.134 139.83C183.65 132.466 191.481 118.886 190.191 116.696C188.901 114.506 187.227 113.732 187.227 111.156C187.227 108.58 191.221 104.713 203.847 106.259C203.847 106.259 217.039 108.669 216.025 113.664C215.488 116.314 212.228 116.132 210.998 117.972C209.957 119.543 208.932 123.436 206.286 127.718C202.595 133.678 199.144 137.952 200.36 138.67C202.115 139.705 212.477 123.901 216.35 117.578C220.223 111.254 230.812 92.7488 237.306 88.8759C243.753 85.0298 249.461 87.0425 254.36 89.7487C259.258 92.4548 270.48 100.051 271.889 102.18C273.298 104.309 273.668 105.595 273.426 105.757Z" fill="#D44631"/>
<path d="M194.337 111.66C194.112 113.749 197.148 115.795 201.127 116.233C205.105 116.67 208.521 115.335 208.756 113.242C208.992 111.148 205.945 109.106 201.966 108.669C197.988 108.231 194.566 109.571 194.337 111.66Z" fill="#3F1E18"/>
<path d="M274.447 106.375C273.942 106.837 269.032 104.58 269.032 104.58L270.989 101.25C271.489 101.544 275.396 105.5 274.447 106.375Z" fill="#3F1E18"/>
<path d="M218.044 127.662C218.044 128.457 218.36 129.218 218.921 129.78C219.483 130.342 220.245 130.658 221.039 130.658C221.834 130.658 222.596 130.342 223.158 129.78C223.719 129.218 224.035 128.457 224.035 127.662C224.036 127.268 223.958 126.879 223.808 126.515C223.657 126.151 223.437 125.821 223.158 125.542C222.88 125.264 222.55 125.043 222.186 124.892C221.823 124.742 221.433 124.664 221.039 124.664C220.646 124.664 220.256 124.742 219.893 124.892C219.529 125.043 219.199 125.264 218.92 125.542C218.642 125.821 218.422 126.151 218.271 126.515C218.121 126.879 218.044 127.268 218.044 127.662Z" fill="#F7CEC1"/>
<path d="M193.437 124.168C193.437 124.734 193.662 125.277 194.062 125.678C194.463 126.078 195.006 126.304 195.573 126.304C196.139 126.304 196.683 126.078 197.083 125.678C197.484 125.277 197.709 124.734 197.709 124.168C197.709 123.601 197.484 123.057 197.083 122.657C196.683 122.256 196.139 122.031 195.573 122.031C195.006 122.031 194.463 122.256 194.062 122.657C193.662 123.057 193.437 123.601 193.437 124.168Z" fill="#3F1E18"/>
<path d="M192.39 134.748C193.718 134.748 194.795 133.671 194.795 132.343C194.795 131.014 193.718 129.938 192.39 129.938C191.061 129.938 189.984 131.014 189.984 132.343C189.984 133.671 191.061 134.748 192.39 134.748Z" fill="#3F1E18"/>
<path d="M191.18 142.446C191.501 140.784 190.413 139.177 188.75 138.857C187.088 138.537 185.481 139.625 185.161 141.287C184.841 142.949 185.929 144.556 187.591 144.877C189.253 145.197 190.86 144.109 191.18 142.446Z" fill="#3F1E18"/>
<path d="M209.04 151.905C209.162 150.18 207.863 148.681 206.137 148.559C204.411 148.436 202.913 149.736 202.79 151.461C202.668 153.187 203.967 154.685 205.693 154.808C207.419 154.931 208.917 153.631 209.04 151.905Z" fill="#F7CEC1"/>
<path d="M223.945 118.482C223.945 119.084 224.185 119.662 224.61 120.088C225.036 120.513 225.614 120.753 226.216 120.753C226.818 120.753 227.396 120.513 227.822 120.088C228.248 119.662 228.487 119.084 228.487 118.482C228.487 117.88 228.248 117.302 227.822 116.876C227.396 116.45 226.818 116.211 226.216 116.211C225.614 116.211 225.036 116.45 224.61 116.876C224.185 117.302 223.945 117.88 223.945 118.482Z" fill="#F7CEC1"/>
<path d="M229.485 110.63C229.485 110.899 229.538 111.164 229.641 111.412C229.744 111.66 229.894 111.886 230.084 112.076C230.274 112.265 230.499 112.416 230.747 112.519C230.995 112.622 231.261 112.674 231.53 112.674C232.071 112.674 232.591 112.458 232.974 112.075C233.357 111.691 233.572 111.172 233.572 110.63C233.572 110.362 233.519 110.096 233.417 109.848C233.314 109.6 233.164 109.375 232.974 109.185C232.785 108.995 232.559 108.844 232.312 108.742C232.064 108.639 231.798 108.586 231.53 108.586C230.987 108.586 230.467 108.801 230.084 109.185C229.701 109.568 229.485 110.088 229.485 110.63Z" fill="#F7CEC1"/>
<path d="M237.614 104.417C238.743 104.417 239.658 103.501 239.658 102.372C239.658 101.243 238.743 100.328 237.614 100.328C236.485 100.328 235.569 101.243 235.569 102.372C235.569 103.501 236.485 104.417 237.614 104.417Z" fill="#F7CEC1"/>
<path d="M200.093 141.726C200.14 141.726 200.185 141.708 200.219 141.675C200.253 141.643 200.273 141.598 200.275 141.551L200.405 138.409C200.406 138.385 200.402 138.361 200.394 138.339C200.386 138.316 200.373 138.295 200.357 138.278C200.341 138.26 200.321 138.246 200.299 138.235C200.278 138.225 200.254 138.22 200.23 138.219C200.182 138.218 200.136 138.236 200.101 138.269C200.065 138.301 200.044 138.346 200.041 138.394L199.911 141.535C199.909 141.584 199.927 141.631 199.959 141.667C199.992 141.702 200.038 141.724 200.086 141.726H200.093Z" fill="#3F1E18"/>
<path d="M206.997 119.07H207.038C208.845 118.644 210.596 118.01 212.257 117.18C212.279 117.17 212.298 117.155 212.314 117.137C212.33 117.119 212.342 117.098 212.349 117.075C212.357 117.052 212.36 117.028 212.359 117.004C212.357 116.981 212.351 116.957 212.34 116.936C212.318 116.893 212.28 116.86 212.234 116.845C212.188 116.83 212.139 116.834 212.095 116.855C210.46 117.672 208.734 118.298 206.955 118.717C206.931 118.723 206.908 118.733 206.888 118.747C206.868 118.761 206.851 118.779 206.838 118.8C206.825 118.821 206.817 118.844 206.813 118.869C206.81 118.893 206.811 118.918 206.818 118.942C206.829 118.98 206.853 119.013 206.886 119.036C206.918 119.059 206.957 119.071 206.997 119.07Z" fill="#3F1E18"/>
<path d="M232.867 143.356C230.804 140.035 228.459 136.896 225.86 133.974C222.808 130.923 212.459 119.41 211.05 120.186C209.271 121.169 216.702 131.827 216.702 131.827C216.702 131.827 206.852 121.994 205.061 123.576C203.221 125.203 213.085 134.991 213.085 134.991C213.085 134.991 203.809 129.226 202.46 130.923C201.291 132.395 211.638 139.587 211.638 139.587C211.638 139.587 202.234 135.895 201.895 137.931C201.556 139.966 210.935 143.018 211.954 143.807C215.709 147.322 220.076 150.118 224.839 152.058L232.867 143.356Z" fill="white"/>
<path d="M240.785 124.69C240.159 122.236 240.088 119.673 240.577 117.188C241.29 114.3 244.937 105.924 242.758 104.833C240.579 103.743 235.674 114.733 234.038 120.366L234.487 124.91C235.41 125.582 236.532 125.925 237.674 125.885C238.816 125.845 239.911 125.424 240.785 124.69Z" fill="white"/>
<path d="M230.347 103.43C228.661 104.633 224.539 100.623 223.96 99.075C223.381 97.5267 225.295 96.2005 226.366 96.4428C227.313 96.6605 231.7 102.463 230.347 103.43Z" fill="white"/>
<path d="M223.619 98.7429C222.851 98.6846 222.091 98.9267 221.498 99.4181C220.904 99.9095 220.525 100.612 220.439 101.377C220.529 102.65 225.89 107.463 227.797 106.736C229.705 106.009 224.072 98.8416 223.619 98.7429Z" fill="white"/>
<path d="M219.354 100.68C218.684 100.698 218.049 100.979 217.584 101.462C217.119 101.944 216.863 102.59 216.87 103.26C216.821 105.159 223.651 109.597 224.809 108.52C226.214 107.207 220.573 100.633 219.354 100.68Z" fill="white"/>
<path d="M210.816 101.802C210.842 101.802 210.867 101.797 210.89 101.787C210.913 101.777 210.934 101.762 210.951 101.744L216.981 95.1423C216.997 95.1247 217.01 95.1041 217.018 95.0815C217.026 95.059 217.03 95.035 217.029 95.011C217.028 94.987 217.022 94.9634 217.012 94.9417C217.002 94.92 216.987 94.9005 216.969 94.8843C216.952 94.868 216.931 94.8553 216.909 94.8471C216.886 94.8388 216.862 94.8351 216.838 94.8361C216.814 94.8372 216.79 94.8429 216.769 94.8531C216.747 94.8633 216.727 94.8778 216.711 94.8955L210.684 101.497C210.668 101.515 210.655 101.535 210.647 101.558C210.639 101.581 210.635 101.604 210.636 101.628C210.637 101.652 210.643 101.676 210.653 101.698C210.663 101.72 210.678 101.739 210.695 101.755C210.728 101.785 210.772 101.802 210.816 101.802Z" fill="#3F1E18"/>
<path d="M205.076 100.084C205.118 100.084 205.159 100.069 205.191 100.042C205.223 100.016 205.245 99.979 205.254 99.938L206.975 91.6131C206.981 91.589 206.982 91.564 206.979 91.5394C206.975 91.5148 206.966 91.4913 206.953 91.4702C206.94 91.4492 206.922 91.4311 206.902 91.4171C206.881 91.4031 206.858 91.3935 206.833 91.3888C206.809 91.3825 206.784 91.3811 206.76 91.3849C206.735 91.3887 206.712 91.3976 206.691 91.4108C206.67 91.4241 206.652 91.4415 206.638 91.462C206.623 91.4825 206.614 91.5057 206.609 91.5301L204.886 99.8549C204.88 99.8789 204.878 99.9041 204.882 99.9287C204.886 99.9533 204.894 99.9767 204.908 99.9977C204.921 100.019 204.938 100.037 204.959 100.051C204.979 100.065 205.003 100.075 205.027 100.079L205.076 100.084Z" fill="#3F1E18"/>
<path d="M198.187 99.2151H198.205C198.229 99.2128 198.252 99.2059 198.273 99.1946C198.295 99.1834 198.314 99.168 198.329 99.1494C198.344 99.1309 198.355 99.1095 198.362 99.0864C198.369 99.0634 198.372 99.0393 198.369 99.0154L197.761 92.7033C197.755 92.6557 197.731 92.6123 197.694 92.5818C197.656 92.5514 197.609 92.5362 197.561 92.5395C197.537 92.5417 197.514 92.5488 197.493 92.56C197.472 92.5713 197.453 92.5867 197.438 92.6052C197.423 92.6238 197.411 92.6452 197.404 92.6682C197.397 92.6912 197.395 92.7153 197.397 92.7392L198.006 99.0513C198.01 99.0963 198.031 99.1381 198.065 99.1683C198.098 99.1986 198.142 99.2153 198.187 99.2151Z" fill="#3F1E18"/>
<path d="M282.737 121.32C288.291 123.441 293.158 127.043 296.81 131.734C301.605 138.794 296.279 152.243 294.679 157.837C293.079 163.431 291.748 173.152 293.613 178.614C295.477 184.075 298.141 189.001 296.676 195.261C295.777 199.062 294.294 202.701 292.28 206.048C287.684 203.939 282.856 202.375 277.896 201.387C272.03 200.44 266.332 198.646 260.982 196.06C256.397 193.427 251.992 190.49 247.797 187.271L256.454 156.772L273.633 126.539L282.737 121.32Z" fill="#D44631"/>
<path d="M256.458 156.756C258.897 155.867 260.929 154.118 262.171 151.838C264.305 147.976 266.704 146.38 268.701 143.181C270.698 139.981 269.1 136.521 271.369 134.654C273.637 132.787 279.202 132.832 283.217 129.859C285.285 128.298 286.961 126.278 288.113 123.957C286.776 123.161 285.391 122.447 283.966 121.821L283.915 121.799L282.757 121.318H282.727C282.727 121.318 273.094 120.676 267.897 126.398C262.701 132.12 257.391 144.105 256.458 156.756Z" fill="#3F1E18"/>
<path d="M294.06 132.981C288.419 129.768 282.655 131.944 278.212 138.757C273.769 145.569 268.269 157.455 266.806 156.679C265.383 155.925 233.82 135.869 232.51 135.611C233.921 136.802 233.574 141.548 228.92 146.916C224.419 152.106 221.082 156.789 216.524 156.136C218.15 157.79 220.242 158.909 222.52 159.344C226.963 160.529 228.446 159.641 231.556 162.01C234.666 164.38 235.259 169.415 240.296 171.787C245.334 174.159 247.109 173.12 252.887 175.637C258.665 178.155 265.125 183.633 272.438 182.748C281.349 181.669 294.123 153.751 296.286 147.198C298.411 140.749 297.821 135.113 294.06 132.981Z" fill="#D44631"/>
<path d="M232.755 162.797C232.79 162.797 232.824 162.787 232.853 162.768C236.17 160.556 239.008 157.698 241.196 154.365C243.385 151.032 244.879 147.293 245.59 143.37C245.596 143.322 245.583 143.274 245.553 143.235C245.524 143.197 245.481 143.172 245.433 143.165C245.385 143.16 245.337 143.173 245.299 143.202C245.261 143.232 245.235 143.275 245.229 143.323C244.526 147.193 243.051 150.882 240.893 154.17C238.734 157.458 235.935 160.278 232.663 162.461C232.643 162.473 232.625 162.49 232.611 162.51C232.597 162.529 232.588 162.551 232.583 162.575C232.577 162.598 232.577 162.622 232.581 162.646C232.585 162.669 232.594 162.692 232.607 162.712C232.623 162.737 232.644 162.758 232.67 162.773C232.696 162.788 232.725 162.796 232.755 162.797Z" fill="#3F1E18"/>
<path d="M267.313 164.547C267.353 164.547 267.391 164.534 267.422 164.51C267.454 164.487 267.477 164.454 267.488 164.417C267.551 164.192 268.983 159.141 266.33 156.013C266.318 155.999 266.304 155.987 266.288 155.977L243.472 141.778C243.452 141.765 243.429 141.756 243.405 141.753C243.381 141.749 243.357 141.749 243.334 141.755C243.31 141.76 243.288 141.77 243.269 141.784C243.249 141.798 243.233 141.816 243.22 141.836C243.208 141.857 243.199 141.879 243.195 141.903C243.191 141.927 243.192 141.951 243.197 141.974C243.203 141.997 243.213 142.02 243.227 142.039C243.241 142.059 243.258 142.075 243.279 142.088L266.07 156.274C268.57 159.251 267.154 164.266 267.138 164.318C267.126 164.364 267.132 164.414 267.155 164.456C267.179 164.498 267.218 164.529 267.264 164.542C267.28 164.546 267.297 164.548 267.313 164.547Z" fill="#3F1E18"/>
<path d="M270.964 159.973C270.993 159.973 271.022 159.966 271.047 159.952C271.09 159.93 271.123 159.892 271.137 159.846C271.152 159.8 271.148 159.751 271.126 159.708C270.345 158.156 269.237 156.791 267.879 155.707C267.859 155.694 267.836 155.686 267.812 155.682C267.788 155.678 267.764 155.679 267.741 155.685C267.717 155.69 267.695 155.701 267.676 155.715C267.657 155.729 267.64 155.747 267.628 155.767C267.603 155.809 267.595 155.858 267.607 155.905C267.618 155.951 267.647 155.992 267.688 156.017C268.985 157.07 270.046 158.384 270.803 159.874C270.818 159.904 270.841 159.929 270.87 159.946C270.898 159.963 270.931 159.973 270.964 159.973Z" fill="#3F1E18"/>
<path d="M261.261 180.058C264.631 182.053 268.522 182.991 272.431 182.751C275.66 182.358 279.405 178.436 282.962 173.277C281.814 171.873 280.369 170.742 278.73 169.966C277.092 169.189 275.301 168.787 273.488 168.789C270.41 168.798 267.446 169.96 265.183 172.046C262.919 174.132 261.52 176.991 261.261 180.058Z" fill="#3F1E18"/>
<path d="M261.54 180.196C261.578 180.196 261.614 180.184 261.645 180.162C261.676 180.141 261.7 180.11 261.713 180.074C261.726 180.03 261.722 179.982 261.701 179.94C261.68 179.898 261.644 179.866 261.6 179.85C260.204 179.291 258.849 178.635 257.543 177.887C255.494 176.719 253.354 175.72 251.144 174.898C249.65 174.401 248.129 173.989 246.589 173.664C244.441 173.249 242.353 172.571 240.371 171.644C238.094 170.287 236.245 168.315 235.037 165.956C234.204 164.376 233.051 162.987 231.651 161.879C231.61 161.853 231.56 161.845 231.513 161.856C231.466 161.867 231.426 161.896 231.4 161.937C231.387 161.957 231.379 161.98 231.375 162.003C231.371 162.027 231.371 162.051 231.377 162.075C231.382 162.098 231.392 162.12 231.406 162.14C231.42 162.159 231.438 162.176 231.458 162.188C232.809 163.272 233.923 164.621 234.73 166.153C235.97 168.574 237.873 170.592 240.216 171.974C242.219 172.912 244.329 173.602 246.499 174.029C248.027 174.352 249.536 174.762 251.018 175.255C253.209 176.071 255.331 177.062 257.362 178.219C258.684 178.976 260.057 179.64 261.473 180.204C261.495 180.205 261.518 180.202 261.54 180.196Z" fill="#3F1E18"/>
<path d="M282.6 173.677C282.629 173.677 282.658 173.67 282.683 173.657C282.709 173.645 282.731 173.626 282.748 173.603C286.547 168.224 289.812 162.488 292.496 156.475C292.516 156.431 292.517 156.382 292.501 156.337C292.484 156.292 292.45 156.255 292.406 156.235C292.363 156.215 292.313 156.213 292.268 156.23C292.223 156.247 292.186 156.281 292.166 156.325C289.492 162.312 286.239 168.024 282.455 173.378C282.44 173.398 282.43 173.42 282.424 173.443C282.418 173.467 282.417 173.491 282.421 173.515C282.425 173.539 282.433 173.561 282.446 173.582C282.459 173.602 282.475 173.62 282.495 173.634C282.525 173.659 282.562 173.674 282.6 173.677Z" fill="#3F1E18"/>
<path d="M262.8 131.305C262.295 133.571 262.401 135.931 263.107 138.142C263.662 139.381 264.608 140.402 265.8 141.051C266.992 141.7 268.363 141.939 269.704 141.732C272.621 141.544 277.527 139.188 281.956 139.094C286.386 139 291.098 142.769 296.375 140.216C301.653 137.662 302.596 129.669 304.104 129.283C305.611 128.897 307.308 139.83 303.067 146.813C298.826 153.796 288.27 154.442 280.165 154.442C272.06 154.442 255.662 151.332 254.722 141.531C254.451 139.425 254.723 137.286 255.512 135.316C256.301 133.345 257.581 131.609 259.23 130.273L262.8 131.305Z" fill="#FEE4E0"/>
</svg>
