<svg width="414" height="732" viewBox="0 0 414 732" fill="none" xmlns="http://www.w3.org/2000/svg">
<g clip-path="url(#clip0_379_20267)">
<rect width="414" height="732" fill="white"/>
<path d="M0 0H414V732H0V0Z" fill="url(#paint0_radial_379_20267)"/>
<g filter="url(#filter0_d_379_20267)">
<path d="M-11 618.209C-11 593.747 16.7031 579.568 36.5454 593.875L93.7497 635.12C94.9151 635.96 96.1595 636.726 97.4324 637.392C140.323 659.844 155.759 669.906 205.5 677.611C235.104 680.273 262.156 673.294 286.5 660.089C307.961 648.447 326.167 608.869 330.178 599.657C330.741 598.366 331.358 597.12 332.07 595.905L368.116 534.382C383.58 507.987 424 518.956 424 549.548V590V711C424 727.569 410.569 741 394 741H19C2.43145 741 -11 727.569 -11 711V618.209Z" fill="#FDFCFB"/>
</g>
</g>
<defs>
<filter id="filter0_d_379_20267" x="-20" y="510.5" width="457" height="243.5" filterUnits="userSpaceOnUse" color-interpolation-filters="sRGB">
<feFlood flood-opacity="0" result="BackgroundImageFix"/>
<feColorMatrix in="SourceAlpha" type="matrix" values="0 0 0 0 0 0 0 0 0 0 0 0 0 0 0 0 0 0 127 0" result="hardAlpha"/>
<feOffset dx="2" dy="2"/>
<feGaussianBlur stdDeviation="5.5"/>
<feComposite in2="hardAlpha" operator="out"/>
<feColorMatrix type="matrix" values="0 0 0 0 0 0 0 0 0 0 0 0 0 0 0 0 0 0 0.25 0"/>
<feBlend mode="normal" in2="BackgroundImageFix" result="effect1_dropShadow_379_20267"/>
<feBlend mode="normal" in="SourceGraphic" in2="effect1_dropShadow_379_20267" result="shape"/>
</filter>
<radialGradient id="paint0_radial_379_20267" cx="0" cy="0" r="1" gradientUnits="userSpaceOnUse" gradientTransform="translate(207 366) rotate(90) scale(366 207)">
<stop offset="0.161458" stop-color="#FFC205"/>
<stop offset="1" stop-color="#FF9801"/>
</radialGradient>
<clipPath id="clip0_379_20267">
<rect width="414" height="732" fill="white"/>
</clipPath>
</defs>
</svg>
